<svg width="157" height="144" viewBox="0 0 157 144" fill="none" xmlns="http://www.w3.org/2000/svg">
<path fill-rule="evenodd" clip-rule="evenodd" d="M144.563 79.5724C144.753 79.4123 145.031 79.4447 145.183 79.6448C145.335 79.8448 145.304 80.1369 145.114 80.297L145.062 80.3425L145.028 80.373C144.963 80.4316 144.889 80.501 144.806 80.5812L144.764 80.6221C144.475 80.9041 144.152 81.2461 143.803 81.6488C142.802 82.8045 141.799 84.2122 140.862 85.878C139.032 89.1308 137.684 92.9544 137.019 97.3699C136.197 102.831 136.468 108.926 138.039 115.677C138.097 115.926 137.952 116.177 137.715 116.238C137.479 116.299 137.24 116.147 137.183 115.898C135.585 109.029 135.308 102.809 136.149 97.2246C136.831 92.6904 138.219 88.7562 140.104 85.4051C141.072 83.6829 142.111 82.2245 143.152 81.0234C143.491 80.6314 143.809 80.2927 144.098 80.0067L144.165 79.9416C144.351 79.7594 144.487 79.6366 144.563 79.5724Z" fill="black"/>
<path fill-rule="evenodd" clip-rule="evenodd" d="M140.035 109.585C139.697 109.276 139.535 108.827 139.579 108.363C140.505 99.3925 144.354 90.1585 150.348 86.7712C156.503 83.2911 160.705 92.9581 152.169 101.929C145.749 108.688 142.312 109.786 141.004 109.926C140.652 109.957 140.299 109.833 140.035 109.585Z" fill="#9FABB8"/>
<path fill-rule="evenodd" clip-rule="evenodd" d="M126.527 107.514C129.055 107.744 131.05 109.202 132.564 111.469C133.138 112.328 133.602 113.245 133.967 114.162C134.08 114.447 134.177 114.715 134.258 114.96L134.287 115.051C134.34 115.215 134.374 115.334 134.392 115.401C134.457 115.648 134.32 115.904 134.085 115.972C133.859 116.038 133.625 115.906 133.55 115.675L133.522 115.575L133.497 115.492C133.484 115.448 133.469 115.399 133.452 115.348C133.372 115.099 133.273 114.821 133.154 114.52C132.812 113.661 132.377 112.802 131.843 112.003C130.466 109.942 128.688 108.642 126.452 108.439C126.209 108.417 126.03 108.192 126.05 107.937C126.071 107.691 126.27 107.506 126.502 107.513L126.527 107.514Z" fill="black"/>
<path fill-rule="evenodd" clip-rule="evenodd" d="M155.654 87.2317C155.82 87.4055 155.826 87.6833 155.674 87.8656L155.642 87.9017L155.469 88.0865L155.308 88.2606C155.233 88.3422 155.153 88.4294 155.068 88.5221L154.938 88.6651C154.366 89.2961 153.727 90.0185 153.04 90.8202C151.075 93.1111 149.111 95.5778 147.278 98.1251C145.096 101.158 143.251 104.101 141.848 106.875C141.404 107.755 141.006 108.613 140.659 109.447C140.561 109.682 140.301 109.788 140.078 109.685C139.855 109.583 139.754 109.309 139.851 109.074C140.208 108.218 140.615 107.339 141.07 106.439C142.497 103.617 144.368 100.634 146.576 97.5648C148.425 94.9945 150.405 92.5077 152.386 90.1983L152.628 89.9163C153.189 89.2661 153.716 88.671 154.198 88.1375L154.496 87.81C154.6 87.6961 154.697 87.5909 154.786 87.4944L155.031 87.2321C155.203 87.0508 155.482 87.0506 155.654 87.2317Z" fill="black"/>
<path fill-rule="evenodd" clip-rule="evenodd" d="M152.348 99.464L152.498 99.456C152.793 99.4416 153.044 99.436 153.247 99.4364L153.447 99.4391C153.691 99.4476 153.881 99.6621 153.873 99.9182C153.866 100.165 153.676 100.361 153.444 100.367L153.376 100.366C153.142 100.361 152.811 100.367 152.395 100.391C151.771 100.426 151.088 100.495 150.36 100.606C148.363 100.911 146.345 101.478 144.413 102.37C144.19 102.472 143.93 102.366 143.833 102.131C143.735 101.896 143.836 101.622 144.059 101.52C146.069 100.592 148.163 100.004 150.234 99.6878C150.989 99.5726 151.698 99.5008 152.348 99.464Z" fill="black"/>
<path fill-rule="evenodd" clip-rule="evenodd" d="M148.476 88.2839C148.689 88.4087 148.765 88.6914 148.647 88.9152L148.544 89.1119C148.51 89.1765 148.474 89.2477 148.434 89.3251L148.291 89.6072C148.159 89.8669 148.018 90.1497 147.87 90.4532C147.285 91.6455 146.701 92.9093 146.156 94.1881C145.725 95.1996 145.336 96.1795 145 97.1124L144.916 97.3497C144.027 99.8656 143.586 101.887 143.705 103.2C143.729 103.455 143.551 103.681 143.309 103.706C143.066 103.73 142.851 103.543 142.828 103.288C142.689 101.752 143.186 99.5349 144.176 96.7836C144.518 95.8323 144.914 94.8357 145.352 93.8081C145.904 92.5127 146.495 91.234 147.086 90.0276L147.252 89.6909C147.379 89.4361 147.498 89.1978 147.611 88.9779L147.77 88.6674L147.877 88.4631C147.995 88.2393 148.264 88.1591 148.476 88.2839Z" fill="black"/>
<path fill-rule="evenodd" clip-rule="evenodd" d="M146.337 105.054C146.954 104.999 147.49 104.983 147.903 104.989L148.043 104.992C148.286 105.001 148.476 105.216 148.467 105.472C148.458 105.719 148.268 105.914 148.036 105.92L147.95 105.918C147.558 105.91 147.028 105.924 146.41 105.979C145.479 106.061 144.561 106.22 143.706 106.473C142.901 106.71 142.187 107.022 141.589 107.412C141.382 107.547 141.111 107.48 140.982 107.262C140.854 107.045 140.918 106.759 141.125 106.623C141.799 106.183 142.588 105.839 143.468 105.579C144.381 105.309 145.354 105.141 146.337 105.054Z" fill="black"/>
<path fill-rule="evenodd" clip-rule="evenodd" d="M132.425 101.388C131.969 101.728 131.44 101.774 131.029 101.542C122.993 96.8868 116.206 88.1942 116.103 78.8211C115.985 69.185 127.356 67.1588 131.455 82.1001C134.54 93.3448 133.806 98.4026 133.247 100.212C133.086 100.676 132.792 101.109 132.425 101.388Z" fill="#9FABB8"/>
<path fill-rule="evenodd" clip-rule="evenodd" d="M118.844 72.5991C118.96 72.3736 119.228 72.2897 119.442 72.4116C123.212 74.5577 126.255 79.5561 128.683 86.5456C129.827 89.8399 130.759 93.3658 131.495 96.8912L131.579 97.2991C131.772 98.2431 131.939 99.1319 132.081 99.9519L132.141 100.299C132.202 100.66 132.253 100.98 132.296 101.256L132.346 101.599C132.382 101.852 132.215 102.088 131.974 102.125C131.734 102.162 131.51 101.987 131.474 101.734L131.434 101.459L131.399 101.236C131.368 101.034 131.331 100.81 131.291 100.567L131.273 100.462C131.101 99.445 130.889 98.3114 130.634 97.0904C129.906 93.6027 128.984 90.1155 127.855 86.8643C125.495 80.0702 122.553 75.2376 119.022 73.2279C118.808 73.1061 118.729 72.8245 118.844 72.5991Z" fill="black"/>
<path fill-rule="evenodd" clip-rule="evenodd" d="M116.156 80.0691C116.256 79.8354 116.517 79.7312 116.739 79.8364C118.539 80.689 120.596 81.7498 122.594 82.9204L122.851 83.0721C125.664 84.738 127.829 86.327 129.078 87.7738C129.242 87.9634 129.229 88.2569 129.048 88.4293C128.868 88.6017 128.59 88.5877 128.426 88.3981C127.22 87.0019 125.026 85.4068 122.165 83.7314C120.192 82.5753 118.156 81.5254 116.378 80.6827C116.156 80.5775 116.057 80.3028 116.156 80.0691Z" fill="black"/>
<path fill-rule="evenodd" clip-rule="evenodd" d="M130.929 81.5143C131.172 81.4905 131.386 81.678 131.409 81.9332C131.601 84.0896 131.698 86.1728 131.651 87.9959L131.645 88.2207C131.569 90.5606 131.252 92.2456 130.601 93.1462C130.454 93.3502 130.177 93.3898 129.984 93.2346C129.79 93.0794 129.752 92.7883 129.9 92.5844C130.878 91.2309 130.983 87.1063 130.531 82.0195C130.509 81.7644 130.687 81.5382 130.929 81.5143Z" fill="black"/>
<path fill-rule="evenodd" clip-rule="evenodd" d="M119.859 90.779C120.012 90.5799 120.29 90.5492 120.479 90.7105C121.499 91.58 123.005 92.5009 124.865 93.4364C126.17 94.0928 127.57 94.7174 128.97 95.2891L129.213 95.3875C129.531 95.5162 129.834 95.6354 130.116 95.7444L130.499 95.8902L130.834 96.0147C131.064 96.0978 131.187 96.3617 131.108 96.6042C131.032 96.8379 130.796 96.9664 130.573 96.9007L130.495 96.8732L130.31 96.8047C130.258 96.7852 130.203 96.7645 130.145 96.7425L129.813 96.6158C129.455 96.4777 129.066 96.3234 128.652 96.1544C127.232 95.5748 125.812 94.9413 124.485 94.2738L124.232 94.1453C122.431 93.2248 120.96 92.3149 119.924 91.4317C119.735 91.2704 119.706 90.9782 119.859 90.779Z" fill="black"/>
<path fill-rule="evenodd" clip-rule="evenodd" d="M127.386 105.566C127.554 104.263 127.364 103.16 126.962 103.102C126.56 103.045 126.098 104.055 125.93 105.358C125.762 106.662 125.952 107.765 126.354 107.823C126.756 107.88 127.218 106.87 127.386 105.566Z" fill="#FFC10E"/>
<path fill-rule="evenodd" clip-rule="evenodd" d="M126.363 107.818C126.6 107.515 126.082 106.652 125.206 105.891C124.33 105.13 123.427 104.759 123.19 105.062C122.952 105.365 123.47 106.228 124.346 106.989C125.222 107.75 126.125 108.121 126.363 107.818Z" fill="#FFC10E"/>
<path fill-rule="evenodd" clip-rule="evenodd" d="M128.697 107.365C129.789 106.762 130.519 105.961 130.327 105.575C130.134 105.189 129.093 105.365 128.001 105.968C126.909 106.571 126.179 107.372 126.371 107.758C126.563 108.144 127.604 107.968 128.697 107.365Z" fill="#FFC10E"/>
<path fill-rule="evenodd" clip-rule="evenodd" d="M124.887 109.472C125.883 108.897 126.545 108.152 126.365 107.807C126.186 107.463 125.233 107.65 124.237 108.225C123.241 108.8 122.579 109.545 122.758 109.89C122.938 110.234 123.891 110.047 124.887 109.472Z" fill="#FFC10E"/>
<path fill-rule="evenodd" clip-rule="evenodd" d="M128.092 111.779C128.431 111.616 128.322 110.596 127.847 109.5C127.372 108.404 126.712 107.648 126.372 107.811C126.033 107.974 126.142 108.995 126.617 110.091C127.092 111.186 127.752 111.943 128.092 111.779Z" fill="#FFC10E"/>
<path fill-rule="evenodd" clip-rule="evenodd" d="M146.577 78.7257C147.4 77.2134 147.502 75.6467 146.805 75.2264C146.108 74.8061 144.876 75.6913 144.053 77.2036C143.23 78.7158 143.129 80.2825 143.826 80.7028C144.523 81.1231 145.755 80.2379 146.577 78.7257Z" fill="#FFC10E"/>
<path fill-rule="evenodd" clip-rule="evenodd" d="M146.632 82.1621C148.271 82.1271 149.586 81.4063 149.57 80.5522C149.553 79.6982 148.211 79.0342 146.573 79.0693C144.934 79.1043 143.619 79.825 143.636 80.6791C143.652 81.5332 144.994 82.1971 146.632 82.1621Z" fill="#FFC10E"/>
<path fill-rule="evenodd" clip-rule="evenodd" d="M143.621 80.7384C144.2 80.2849 143.956 78.9057 143.075 77.6579C142.194 76.4101 141.01 75.7662 140.431 76.2197C139.851 76.6732 140.095 78.0523 140.976 79.3002C141.857 80.548 143.041 81.1919 143.621 80.7384Z" fill="#FFC10E"/>
<path fill-rule="evenodd" clip-rule="evenodd" d="M144.689 83.1963C145.29 81.7764 145.249 80.3771 144.597 80.0708C143.945 79.7646 142.929 80.6674 142.327 82.0873C141.726 83.5072 141.767 84.9065 142.419 85.2128C143.071 85.519 144.087 84.6162 144.689 83.1963Z" fill="#FFC10E"/>
<path fill-rule="evenodd" clip-rule="evenodd" d="M142.609 81.9173C143.924 81.768 144.932 81.0893 144.862 80.4014C144.791 79.7135 143.668 79.2768 142.354 79.4261C141.039 79.5754 140.03 80.254 140.1 80.942C140.171 81.6299 141.294 82.0665 142.609 81.9173Z" fill="#FFC10E"/>
<path fill-rule="evenodd" clip-rule="evenodd" d="M149.643 117.056L144.207 142.979H126.945L121.509 117.056C121.201 115.571 122.082 114.117 123.287 114.117H147.88C149.084 114.133 149.966 115.587 149.643 117.056Z" fill="white"/>
<path fill-rule="evenodd" clip-rule="evenodd" d="M147.885 113.653L123.287 113.653C121.774 113.653 120.715 115.403 121.079 117.155L126.515 143.079C126.559 143.292 126.738 143.443 126.945 143.443H144.207C144.414 143.443 144.593 143.292 144.637 143.079L150.073 117.156C150.453 115.426 149.398 113.673 147.885 113.653ZM147.879 114.581L147.909 114.582C148.783 114.622 149.455 115.74 149.223 116.905L143.853 142.515H127.299L121.94 116.956C121.687 115.741 122.389 114.581 123.287 114.581H147.879Z" fill="black"/>
<path fill-rule="evenodd" clip-rule="evenodd" d="M118.689 69.1695C118.174 65.5811 115.589 62.6578 112.151 61.8999C109.316 61.2812 106.436 60.647 105.643 60.4305L105.54 60.8945L87.4555 59.4251L87.2645 56.7338L79.6399 56.8112C71.0309 57.6464 64.5963 72.1237 61.4083 80.9246L59.6454 85.8122L73.073 80.4451C73.0289 83.09 73.264 85.7504 73.8957 88.2406C77.1424 101.017 70.7371 104.883 70.7371 104.883L67.2406 121.634L62.9802 121.325V143.737L108.405 143.644L107.7 105.007L118.689 69.1695ZM107.7 90.6844V90.4988L107.714 90.6844H107.7Z" fill="#FFC10E"/>
<path fill-rule="evenodd" clip-rule="evenodd" d="M108.199 124.635L63.4062 125.084L62.9949 143.737H108.405L108.199 124.635Z" fill="black"/>
<path fill-rule="evenodd" clip-rule="evenodd" d="M77.5549 69.5524C77.6623 69.3225 77.9265 69.2278 78.1449 69.3409C78.3552 69.4498 78.4464 69.7117 78.3569 69.9363L78.3458 69.9621L75.6573 75.7159C75.5499 75.9458 75.2857 76.0405 75.0673 75.9274C74.857 75.8185 74.7658 75.5566 74.8553 75.332L74.8664 75.3062L77.5549 69.5524Z" fill="black"/>
<path fill-rule="evenodd" clip-rule="evenodd" d="M108.488 48.3274C108.719 48.2474 108.968 48.3799 109.044 48.6233C109.422 49.8339 109.413 51.358 109.005 52.856C108.213 55.756 106.155 57.7395 104.27 57.2296C104.034 57.1659 103.892 56.913 103.953 56.6648C104.013 56.4166 104.253 56.267 104.489 56.3308C105.81 56.688 107.481 55.0772 108.157 52.5997C108.519 51.2737 108.527 49.9386 108.206 48.913C108.13 48.6696 108.256 48.4074 108.488 48.3274Z" fill="#FFC10E"/>
<path fill-rule="evenodd" clip-rule="evenodd" d="M86.1571 44.4451C86.3884 44.3651 86.6374 44.4976 86.7134 44.7411C87.0912 45.9516 87.0829 47.4758 86.6742 48.9737C85.8827 51.8738 83.8243 53.8572 81.9393 53.3474C81.7036 53.2836 81.5616 53.0307 81.6221 52.7825C81.6827 52.5343 81.9229 52.3848 82.1586 52.4485C83.4792 52.8057 85.1508 51.1949 85.827 48.7174C86.1888 47.3915 86.1961 46.0564 85.876 45.0308C85.8 44.7873 85.9259 44.5251 86.1571 44.4451Z" fill="#FFC10E"/>
<path fill-rule="evenodd" clip-rule="evenodd" d="M109.639 28.8C106.51 25.6447 105.951 11.2601 116.47 3.09344C127.121 -5.16607 133.82 5.661 135.26 8.47604C136.7 11.2911 137.155 18.5297 128.135 24.0979C119.114 29.6662 113.209 32.3884 109.639 28.8Z" fill="black"/>
<path fill-rule="evenodd" clip-rule="evenodd" d="M103.865 34.3372L104.056 34.5074C105.231 35.5592 107.053 35.42 108.111 34.2135L111.093 30.8416C112.166 29.6352 112.078 27.8101 110.902 26.7583L110.711 26.5882C109.536 25.5364 107.714 25.6756 106.657 26.882L103.674 30.2539C102.602 31.4758 102.69 33.3009 103.865 34.3372Z" fill="#FFC10E"/>
<path fill-rule="evenodd" clip-rule="evenodd" d="M98.0275 38.8009C101.926 34.849 103.238 29.6252 100.959 27.1332C98.6796 24.6412 93.672 25.8247 89.7739 29.7767C85.8757 33.7286 84.5633 38.9525 86.8425 41.4444C89.1217 43.9364 94.1294 42.7529 98.0275 38.8009Z" fill="black"/>
<path fill-rule="evenodd" clip-rule="evenodd" d="M96.1672 38.6681C99.2817 43.2464 103.469 45.4427 107.009 45.3499C110.77 45.2571 113.503 36.6883 110.388 32.11C107.274 27.5317 98.7822 24.531 95.844 26.6036C92.9058 28.6917 93.0527 34.0898 96.1672 38.6681Z" fill="black"/>
<path fill-rule="evenodd" clip-rule="evenodd" d="M108.135 48.3383C109.823 47.7559 110.766 45.915 110.241 44.2265C109.716 42.538 107.921 41.6414 106.232 42.2237C104.544 42.8061 103.601 44.647 104.126 46.3355C104.652 48.024 106.446 48.9207 108.135 48.3383Z" fill="white"/>
<path fill-rule="evenodd" clip-rule="evenodd" d="M106.129 41.8202C104.195 42.5013 103.089 44.6008 103.673 46.5173C104.257 48.4339 106.304 49.423 108.238 48.7418C110.172 48.0607 111.278 45.9612 110.694 44.0446C110.11 42.1281 108.063 41.139 106.129 41.8202ZM106.395 42.6929C107.871 42.1731 109.414 42.9185 109.848 44.3427C110.282 45.7668 109.448 47.3491 107.972 47.869C106.496 48.3889 104.953 47.6435 104.52 46.2193C104.086 44.7951 104.919 43.2128 106.395 42.6929Z" fill="black"/>
<path fill-rule="evenodd" clip-rule="evenodd" d="M86.3457 44.27C88.0342 43.6876 88.9772 41.8467 88.4519 40.1582C87.9265 38.4697 86.1317 37.5731 84.4432 38.1554C82.7546 38.7378 81.8116 40.5787 82.337 42.2672C82.8624 43.9557 84.6571 44.8524 86.3457 44.27Z" fill="white"/>
<path fill-rule="evenodd" clip-rule="evenodd" d="M84.34 37.7519C82.4061 38.433 81.3003 40.5325 81.8842 42.4491C82.4681 44.3656 84.515 45.3547 86.4489 44.6735C88.3828 43.9924 89.4887 41.8929 88.9047 39.9764C88.3208 38.0598 86.274 37.0707 84.34 37.7519ZM84.6059 38.6247C86.082 38.1048 87.6247 38.8502 88.0586 40.2744C88.4925 41.6986 87.6591 43.2809 86.183 43.8008C84.7069 44.3206 83.1642 43.5752 82.7303 42.151C82.2964 40.7269 83.1298 39.1446 84.6059 38.6247Z" fill="black"/>
<path fill-rule="evenodd" clip-rule="evenodd" d="M92.1859 52.8361L90.7461 57.4144L86.8383 57.1514C86.4564 57.7237 83.239 68.5663 93.082 70.082C99.5461 71.0874 104.056 66.107 107.185 61.2657L101.808 60.0438L105.364 47.0204L92.1859 52.8361Z" fill="white"/>
<path fill-rule="evenodd" clip-rule="evenodd" d="M92.0155 52.4081L91.9888 52.421C91.8843 52.476 91.8044 52.5727 91.7674 52.6902L90.4347 56.9284L86.8664 56.6884C86.7132 56.6781 86.566 56.7524 86.4777 56.8847C86.2997 57.1513 86.0181 58.0986 85.8355 59.1138C85.5856 60.5037 85.514 61.95 85.689 63.3246C86.1808 67.1883 88.4889 69.8437 93.0182 70.5412C96.1471 71.0278 99.0049 70.1975 101.638 68.2458C103.77 66.6657 105.673 64.4305 107.55 61.5268L107.564 61.5032C107.717 61.2336 107.575 60.8796 107.278 60.8122L102.362 59.6949L105.787 47.1486C105.889 46.7742 105.535 46.4419 105.193 46.5925L92.0155 52.4081ZM104.686 47.8224L101.385 59.9156L101.378 59.9424C101.325 60.1919 101.475 60.4427 101.715 60.4974L106.447 61.5726L106.437 61.5884C104.74 64.1236 103.019 66.087 101.131 67.4869C98.6739 69.3078 96.0401 70.0731 93.1464 69.623C89.0201 68.9876 87.0039 66.6679 86.5626 63.2013C86.4013 61.934 86.468 60.5851 86.7016 59.2864L86.7117 59.2308C86.8225 58.6304 86.973 58.0548 87.0828 57.7148L87.1093 57.6345L90.718 57.8775L90.7452 57.8784C90.9345 57.8789 91.1044 57.7515 91.1645 57.5602L92.541 53.1822L104.686 47.8224Z" fill="black"/>
<path fill-rule="evenodd" clip-rule="evenodd" d="M105.924 45.8259C108.127 38.5859 105.579 31.2546 100.232 29.4511C94.8853 27.6476 88.7649 32.0547 86.5617 39.2947C84.3585 46.5347 86.907 53.866 92.2538 55.6695C97.6006 57.473 103.721 53.0659 105.924 45.8259Z" fill="white"/>
<path fill-rule="evenodd" clip-rule="evenodd" d="M86.0203 39.0376C83.8162 46.4372 86.5683 54.0412 92.2408 55.9959C97.9132 57.9506 104.261 53.4825 106.465 46.0829C108.67 38.6833 105.917 31.0794 100.245 29.1247C94.5725 27.17 88.2244 31.6381 86.0203 39.0376ZM86.8683 39.33C88.9409 32.372 94.8338 28.2244 99.9846 29.9993C105.135 31.7741 107.69 38.8326 105.617 45.7906C103.545 52.7486 97.6519 56.8962 92.5012 55.1213C87.3504 53.3465 84.7956 46.2879 86.8683 39.33Z" fill="black"/>
<path fill-rule="evenodd" clip-rule="evenodd" d="M94.4367 39.4057C94.5285 39.1684 94.7856 39.0543 95.0111 39.1509C95.2285 39.244 95.337 39.4991 95.2622 39.73L95.2532 39.7556L93.2569 44.9196L95.0034 45.2167C95.2351 45.2561 95.3952 45.479 95.3716 45.7217L95.3682 45.7487C95.3308 45.9927 95.119 46.1613 94.8885 46.1364L94.8628 46.1328L92.9563 45.8086C92.4924 45.7334 92.2162 45.2294 92.3694 44.7572L92.38 44.7265L94.4367 39.4057Z" fill="black"/>
<path fill-rule="evenodd" clip-rule="evenodd" d="M97.9895 36.6458C98.9982 35.9181 100.053 36.0996 101.003 36.8109C101.179 36.9421 101.337 37.0822 101.475 37.2227C101.561 37.3089 101.622 37.3783 101.658 37.4226C101.817 37.6172 101.795 37.9101 101.611 38.0769C101.433 38.2373 101.169 38.2226 101.008 38.0483L100.963 37.9959C100.94 37.9703 100.907 37.9347 100.865 37.8918C100.755 37.7813 100.63 37.6703 100.493 37.5673C99.8121 37.0579 99.1384 36.942 98.4877 37.4114C98.2869 37.5562 98.0126 37.5023 97.8751 37.2909C97.7375 37.0794 97.7887 36.7906 97.9895 36.6458Z" fill="black"/>
<path fill-rule="evenodd" clip-rule="evenodd" d="M91.6493 35.339C92.1955 35.2429 92.7612 35.3276 93.3106 35.5239C93.5442 35.6073 93.724 35.692 93.8326 35.7527C94.0475 35.8731 94.129 36.1541 94.0147 36.3803C93.9046 36.5982 93.6531 36.6859 93.4427 36.5846L93.3905 36.5573C93.3777 36.5507 93.3616 36.5427 93.3423 36.5334L93.3219 36.5238C93.2349 36.4828 93.1358 36.4414 93.0274 36.4027C92.6039 36.2514 92.1757 36.1873 91.7944 36.2543C91.4021 36.3233 91.0805 36.5273 90.8284 36.9075C90.6891 37.1176 90.4143 37.1691 90.2147 37.0224C90.0151 36.8757 89.9663 36.5864 90.1056 36.3763C90.4975 35.7854 91.0295 35.4479 91.6493 35.339Z" fill="black"/>
<path fill-rule="evenodd" clip-rule="evenodd" d="M99.17 41.9849C99.2313 41.3132 98.934 40.7335 98.506 40.6902C98.0779 40.6469 97.6812 41.1564 97.6199 41.8281C97.5586 42.4999 97.8559 43.0795 98.284 43.1228C98.712 43.1661 99.1087 42.6567 99.17 41.9849Z" fill="black"/>
<path fill-rule="evenodd" clip-rule="evenodd" d="M91.9604 41.3803C92.0881 40.719 91.8501 40.1098 91.4287 40.0195C91.0073 39.9293 90.5622 40.3922 90.4344 41.0535C90.3067 41.7148 90.5447 42.324 90.9661 42.4142C91.3875 42.5045 91.8326 42.0415 91.9604 41.3803Z" fill="black"/>
<path fill-rule="evenodd" clip-rule="evenodd" d="M104.144 30.3777C104.144 30.3777 100.09 32.1409 100.339 34.8477L83.0481 33.6567C83.0481 33.6567 81.2558 19.8445 101.926 26.449L104.144 30.3777Z" fill="black"/>
<path fill-rule="evenodd" clip-rule="evenodd" d="M102.94 30.9809C102.94 30.9809 101.573 40.0292 107.127 42.504L107.23 34.4919L102.94 30.9809Z" fill="black"/>
<path fill-rule="evenodd" clip-rule="evenodd" d="M80.0098 46.9531C80.8182 44.0156 82.9284 42.0162 84.8176 42.6001C85.0512 42.6723 85.1849 42.9301 85.1164 43.176C85.0478 43.4219 84.8029 43.5627 84.5693 43.4906C83.2559 43.0846 81.5464 44.7045 80.8564 47.2114C80.1747 49.6883 80.7827 51.9956 82.0716 52.4238L82.0911 52.4299L82.1269 52.4394L82.1447 52.4449L82.1501 52.4462C82.3367 52.4923 82.4776 52.6632 82.4891 52.8707L82.4898 52.898C82.4898 53.1542 82.2925 53.362 82.0491 53.362C81.9983 53.362 81.96 53.3547 81.9198 53.3432L81.8924 53.3346L81.8698 53.3288C79.9961 52.7678 79.2181 49.9435 79.986 47.0411L80.0098 46.9531Z" fill="#FFC10E"/>
<path fill-rule="evenodd" clip-rule="evenodd" d="M102.34 50.8354C103.149 47.8979 105.259 45.8984 107.148 46.4824C107.382 46.5546 107.515 46.8124 107.447 47.0583C107.378 47.3042 107.133 47.445 106.9 47.3728C105.586 46.9669 103.877 48.5867 103.187 51.0937C102.505 53.5706 103.113 55.8779 104.402 56.306L104.421 56.3122L104.457 56.3217L104.475 56.3272L104.48 56.3285C104.667 56.3746 104.808 56.5455 104.819 56.753L104.82 56.7802C104.82 57.0365 104.623 57.2442 104.379 57.2442C104.329 57.2442 104.29 57.237 104.25 57.2255L104.223 57.2169L104.2 57.2111C102.326 56.6501 101.548 53.8257 102.316 50.9234L102.34 50.8354Z" fill="#FFC10E"/>
<path fill-rule="evenodd" clip-rule="evenodd" d="M98.6694 46.7447C98.741 46.4998 98.9876 46.3623 99.2202 46.4377C99.4529 46.5131 99.5834 46.7727 99.5119 47.0177C99.0837 48.4828 98.1248 49.3935 96.8237 49.8311C95.9619 50.1209 95.0632 50.1744 94.2565 50.0946L94.1465 50.0826C94.0804 50.0747 94.0294 50.0673 93.9949 50.0613C93.7547 50.0198 93.5919 49.7811 93.6314 49.5282C93.6694 49.2844 93.8816 49.1164 94.112 49.1419L94.2021 49.155C94.2376 49.1597 94.2835 49.1651 94.339 49.1706C95.0376 49.2398 95.8244 49.1929 96.5555 48.9471C97.5973 48.5967 98.3321 47.8988 98.6694 46.7447Z" fill="black"/>
<path fill-rule="evenodd" clip-rule="evenodd" d="M48.3627 125.377L43.6909 143.412H71.7655L67.2112 125.223L48.3627 125.377Z" fill="#404A56"/>
<path fill-rule="evenodd" clip-rule="evenodd" d="M94.4191 126.043H23.5202C22.7416 126.043 22.1099 125.377 22.1099 124.558L22.5065 76.4082C22.5065 75.5884 22.7416 74.0726 23.5055 74.0726H94.4191C95.1977 74.0726 95.8294 74.7377 95.8294 75.5575V124.558C95.8147 125.377 95.183 126.043 94.4191 126.043Z" fill="#404A56"/>
<path fill-rule="evenodd" clip-rule="evenodd" d="M83.0481 118.649H31.8353C30.9391 118.649 30.2192 117.891 30.2192 116.948V80.6307C30.2192 79.6872 30.9391 78.9293 31.8353 78.9293H83.0481C83.9443 78.9293 84.6642 79.6872 84.6642 80.6307V116.963C84.6642 117.891 83.9296 118.649 83.0481 118.649Z" fill="white"/>
<path fill-rule="evenodd" clip-rule="evenodd" d="M73.8076 116.577H40.841C40.0917 116.577 39.4894 115.942 39.4894 115.154V92.3085C39.4894 91.5197 40.0917 90.8855 40.841 90.8855H73.8223C74.5715 90.8855 75.1739 91.5197 75.1739 92.3085V115.138C75.1739 115.927 74.5568 116.577 73.8076 116.577Z" fill="black"/>
<path fill-rule="evenodd" clip-rule="evenodd" d="M57.3389 129.956C55.2212 129.956 53.5045 131.763 53.5045 133.993C53.5045 136.222 55.2212 138.03 57.3389 138.03C59.4565 138.03 61.1732 136.222 61.1732 133.993C61.1732 131.763 59.4565 129.956 57.3389 129.956ZM57.3389 130.884C58.9697 130.884 60.2918 132.276 60.2918 133.993C60.2918 135.71 58.9697 137.102 57.3389 137.102C55.708 137.102 54.386 135.71 54.386 133.993C54.386 132.276 55.708 130.884 57.3389 130.884Z" fill="white"/>
<path fill-rule="evenodd" clip-rule="evenodd" d="M64.7454 125.653C64.974 125.596 65.2027 125.738 65.2685 125.972L65.2752 125.998L69.0214 142.811C69.077 143.061 68.9299 143.31 68.693 143.369C68.4645 143.425 68.2358 143.284 68.1699 143.05L68.1632 143.023L64.417 126.21C64.3614 125.961 64.5085 125.711 64.7454 125.653Z" fill="white"/>
<path fill-rule="evenodd" clip-rule="evenodd" d="M87.2793 76.8722H27.6044C26.4648 76.8722 25.5476 77.8378 25.5476 79.0376V119.933C25.5476 121.133 26.4648 122.098 27.6044 122.098H87.2793C88.4188 122.098 89.336 121.133 89.336 119.933V79.0376C89.336 77.8378 88.4188 76.8722 87.2793 76.8722ZM27.6043 77.8002H87.2793C87.932 77.8002 88.4545 78.3504 88.4545 79.0376V119.933C88.4545 120.62 87.932 121.17 87.2793 121.17H27.6043C26.9516 121.17 26.4291 120.62 26.4291 119.933V79.0376C26.4291 78.3504 26.9516 77.8002 27.6043 77.8002Z" fill="white"/>
<path fill-rule="evenodd" clip-rule="evenodd" d="M92.4357 74.0262C92.6704 74.0262 92.8623 74.2194 92.8757 74.463L92.8764 74.4902V125.579C92.8764 125.835 92.6791 126.043 92.4357 126.043C92.201 126.043 92.0091 125.849 91.9957 125.606L91.995 125.579V74.4902C91.995 74.234 92.1923 74.0262 92.4357 74.0262Z" fill="white"/>
<path fill-rule="evenodd" clip-rule="evenodd" d="M79.0817 80.5379H18.349L26.4584 77.5527C26.9579 77.3671 27.4868 77.2743 28.0157 77.2743H87.7053L79.0817 80.5379Z" fill="#FFC10E"/>
<path fill-rule="evenodd" clip-rule="evenodd" d="M87.7053 76.8103H28.0157C27.4335 76.8103 26.8553 76.9132 26.3118 77.1152L18.2036 80.0999C17.7351 80.2723 17.8527 81.0019 18.349 81.0019H79.0817C79.1325 81.0019 79.1829 80.9927 79.2308 80.9746L87.8544 77.711C88.3194 77.535 88.1994 76.8103 87.7053 76.8103ZM85.176 77.7383L79.0046 80.0739H20.9445L26.6039 77.9907C27.0538 77.8236 27.5328 77.7383 28.0157 77.7383H85.176Z" fill="black"/>
<path fill-rule="evenodd" clip-rule="evenodd" d="M24.5485 80.5224H18.3489C18.3489 80.5224 18.3342 85.1007 18.3342 85.1626C18.3342 86.864 19.7299 88.2406 21.4487 88.2406C23.1676 88.2406 24.5632 86.864 24.5632 85.1626C24.5632 85.0389 24.5485 80.5224 24.5485 80.5224Z" fill="#FFC10E"/>
<path fill-rule="evenodd" clip-rule="evenodd" d="M24.5486 80.0584H18.349C18.1148 80.0584 17.9232 80.2507 17.9091 80.4937L17.8936 85.1626C17.8936 87.1262 19.4917 88.7046 21.4488 88.7046C23.3863 88.7046 24.972 87.1576 25.0035 85.2214L24.9893 80.5208C24.9885 80.2652 24.7914 80.0584 24.5486 80.0584ZM18.7881 80.9865H24.1093L24.1226 85.1626C24.1226 86.5999 22.9312 87.7766 21.4488 87.7766C19.9663 87.7766 18.775 86.5999 18.775 85.1626L18.7881 80.9865Z" fill="black"/>
<path fill-rule="evenodd" clip-rule="evenodd" d="M30.6013 80.5224H24.4017C24.4017 80.5224 24.387 85.1007 24.387 85.1626C24.387 86.864 25.7826 88.2406 27.5015 88.2406C29.2203 88.2406 30.616 86.864 30.616 85.1626C30.6306 85.0389 30.6013 80.5224 30.6013 80.5224Z" fill="white"/>
<path fill-rule="evenodd" clip-rule="evenodd" d="M30.6013 80.0584H24.4017C24.1676 80.0584 23.9759 80.2507 23.9618 80.4937L23.9463 85.1626C23.9463 87.1262 25.5444 88.7046 27.5015 88.7046L27.5601 88.7041C29.4518 88.6736 30.9939 87.1686 31.0546 85.2788L31.0594 85.0027C31.0626 84.6778 31.0606 83.9889 31.0551 82.8415L31.042 80.5192C31.0404 80.2642 30.8436 80.0584 30.6013 80.0584ZM24.8408 80.9865H30.1634L30.1784 84.0704C30.1801 84.6816 30.1802 85.0926 30.1787 85.1051C30.1764 85.1241 30.1753 85.1434 30.1753 85.1626C30.1753 86.5999 28.984 87.7766 27.5015 87.7766C26.0191 87.7766 24.8278 86.5999 24.8278 85.1626L24.8408 80.9865Z" fill="black"/>
<path fill-rule="evenodd" clip-rule="evenodd" d="M36.6687 80.5224H30.469C30.469 80.5224 30.4543 85.1007 30.4543 85.1626C30.4543 86.864 31.85 88.2406 33.5688 88.2406C35.2877 88.2406 36.6833 86.864 36.6833 85.1626C36.6833 85.0389 36.6687 80.5224 36.6687 80.5224Z" fill="#FFC10E"/>
<path fill-rule="evenodd" clip-rule="evenodd" d="M36.6687 80.0584H30.4691C30.2349 80.0584 30.0433 80.2507 30.0292 80.4937L30.0137 85.1626C30.0137 87.1262 31.6118 88.7046 33.5689 88.7046C35.5065 88.7046 37.0921 87.1576 37.1236 85.2214L37.1094 80.5208C37.1086 80.2652 36.9115 80.0584 36.6687 80.0584ZM30.9082 80.9865H36.2294L36.2426 85.1626C36.2426 86.5999 35.0513 87.7766 33.5689 87.7766C32.0864 87.7766 30.8951 86.5999 30.8951 85.1626L30.9082 80.9865Z" fill="black"/>
<path fill-rule="evenodd" clip-rule="evenodd" d="M42.7214 80.5224H36.5218C36.5218 80.5224 36.5071 85.1007 36.5071 85.1626C36.5071 86.864 37.9027 88.2406 39.6216 88.2406C41.3404 88.2406 42.7361 86.864 42.7361 85.1626C42.7361 85.0389 42.7214 80.5224 42.7214 80.5224Z" fill="white"/>
<path fill-rule="evenodd" clip-rule="evenodd" d="M42.7214 80.0584H36.5218C36.2877 80.0584 36.0961 80.2507 36.0819 80.4937L36.0664 85.1626C36.0664 87.1262 37.6645 88.7046 39.6216 88.7046C41.5592 88.7046 43.1449 87.1576 43.1764 85.2214L43.1622 80.5208C43.1613 80.2652 42.9643 80.0584 42.7214 80.0584ZM36.961 80.9865H42.2822L42.2954 85.1626C42.2954 86.5999 41.1041 87.7766 39.6216 87.7766C38.1392 87.7766 36.9479 86.5999 36.9479 85.1626L36.961 80.9865Z" fill="black"/>
<path fill-rule="evenodd" clip-rule="evenodd" d="M48.7741 80.5224H42.5745C42.5745 80.5224 42.5598 85.1007 42.5598 85.1626C42.5598 86.864 43.9555 88.2406 45.6743 88.2406C47.3932 88.2406 48.7888 86.864 48.7888 85.1626C48.8035 85.0389 48.7741 80.5224 48.7741 80.5224Z" fill="#FFC10E"/>
<path fill-rule="evenodd" clip-rule="evenodd" d="M48.774 80.0584H42.5744C42.3403 80.0584 42.1487 80.2507 42.1345 80.4937L42.119 85.1626C42.119 87.1262 43.7171 88.7046 45.6742 88.7046L45.7328 88.7041C47.6246 88.6736 49.1667 87.1686 49.2273 85.2788L49.2321 85.0027C49.2354 84.6778 49.2333 83.9889 49.2279 82.8415L49.2148 80.5192C49.2131 80.2642 49.0163 80.0584 48.774 80.0584ZM43.0136 80.9865H48.3361L48.3511 84.0704C48.3528 84.6816 48.3529 85.0926 48.3514 85.1051C48.3492 85.1241 48.348 85.1434 48.348 85.1626C48.348 86.5999 47.1567 87.7766 45.6743 87.7766C44.1918 87.7766 43.0005 86.5999 43.0005 85.1626L43.0136 80.9865Z" fill="black"/>
<path fill-rule="evenodd" clip-rule="evenodd" d="M54.8415 80.5224H48.6419C48.6419 80.5224 48.6272 85.1007 48.6272 85.1626C48.6272 86.864 50.0228 88.2406 51.7417 88.2406C53.4605 88.2406 54.8562 86.864 54.8562 85.1626C54.8562 85.0389 54.8415 80.5224 54.8415 80.5224Z" fill="white"/>
<path fill-rule="evenodd" clip-rule="evenodd" d="M54.8416 80.0584H48.6419C48.4078 80.0584 48.2162 80.2507 48.202 80.4937L48.1865 85.1626C48.1865 87.1262 49.7846 88.7046 51.7417 88.7046C53.6793 88.7046 55.265 87.1576 55.2965 85.2214L55.2823 80.5208C55.2814 80.2652 55.0844 80.0584 54.8416 80.0584ZM49.081 80.9865H54.4023L54.4155 85.1626C54.4155 86.5999 53.2242 87.7766 51.7417 87.7766C50.2593 87.7766 49.068 86.5999 49.068 85.1626L49.081 80.9865Z" fill="black"/>
<path fill-rule="evenodd" clip-rule="evenodd" d="M60.8942 80.5224H54.6946C54.6946 80.5224 54.6799 85.1007 54.6799 85.1626C54.6799 86.864 56.0756 88.2406 57.7944 88.2406C59.5133 88.2406 60.9089 86.864 60.9089 85.1626C60.9089 85.0389 60.8942 80.5224 60.8942 80.5224Z" fill="#FFC10E"/>
<path fill-rule="evenodd" clip-rule="evenodd" d="M60.8942 80.0584H54.6946C54.4604 80.0584 54.2688 80.2507 54.2547 80.4937L54.2391 85.1626C54.2391 87.1262 55.8372 88.7046 57.7944 88.7046C59.7319 88.7046 61.3176 87.1576 61.3491 85.2214L61.3349 80.5208C61.3341 80.2652 61.137 80.0584 60.8942 80.0584ZM55.1337 80.9865H60.4549L60.4681 85.1626C60.4681 86.5999 59.2768 87.7766 57.7944 87.7766C56.3119 87.7766 55.1206 86.5999 55.1206 85.1626L55.1337 80.9865Z" fill="black"/>
<path fill-rule="evenodd" clip-rule="evenodd" d="M66.9468 80.5224H60.7472C60.7472 80.5224 60.7325 85.1007 60.7325 85.1626C60.7325 86.864 62.1282 88.2406 63.847 88.2406C65.5659 88.2406 66.9615 86.864 66.9615 85.1626C66.9762 85.0389 66.9468 80.5224 66.9468 80.5224Z" fill="white"/>
<path fill-rule="evenodd" clip-rule="evenodd" d="M66.9469 80.0584H60.7473C60.5045 80.0584 60.3074 80.2652 60.3066 80.5209L60.2919 85.1626C60.2919 87.1262 61.89 88.7046 63.8471 88.7046L63.9057 88.7041C65.7974 88.6736 67.3395 87.1686 67.4002 85.2788L67.405 85.0027C67.4082 84.6778 67.4062 83.9889 67.4007 82.8415L67.3876 80.5192C67.386 80.2642 67.1891 80.0584 66.9469 80.0584ZM61.1864 80.9865H66.509L66.524 84.0704C66.5257 84.6816 66.5257 85.0926 66.5243 85.1051C66.522 85.1241 66.5209 85.1434 66.5209 85.1626C66.5209 86.5999 65.3296 87.7766 63.8471 87.7766C62.3815 87.7766 61.2005 86.6265 61.1738 85.2115L61.1864 80.9865Z" fill="black"/>
<path fill-rule="evenodd" clip-rule="evenodd" d="M73.0142 80.5224H66.8146C66.8146 80.5224 66.7999 85.1007 66.7999 85.1626C66.7999 86.864 68.1956 88.2406 69.9144 88.2406C71.6333 88.2406 73.0289 86.864 73.0289 85.1626C73.0289 85.0389 73.0142 80.5224 73.0142 80.5224Z" fill="#FFC10E"/>
<path fill-rule="evenodd" clip-rule="evenodd" d="M73.0143 80.0584H66.8147C66.5805 80.0584 66.3889 80.2507 66.3748 80.4937L66.3593 85.1626C66.3593 87.1262 67.9573 88.7046 69.9145 88.7046C71.852 88.7046 73.4377 87.1576 73.4692 85.2214L73.455 80.5208C73.4542 80.2652 73.2571 80.0584 73.0143 80.0584ZM67.2538 80.9865H72.575L72.5882 85.1626C72.5882 86.5999 71.3969 87.7766 69.9145 87.7766C68.432 87.7766 67.2407 86.5999 67.2407 85.1626L67.2538 80.9865Z" fill="black"/>
<path fill-rule="evenodd" clip-rule="evenodd" d="M79.067 80.5224H72.8674C72.8674 80.5224 72.8527 85.1007 72.8527 85.1626C72.8527 86.864 74.2483 88.2406 75.9672 88.2406C77.686 88.2406 79.0817 86.864 79.0817 85.1626C79.0817 85.0389 79.067 80.5224 79.067 80.5224Z" fill="white"/>
<path fill-rule="evenodd" clip-rule="evenodd" d="M79.067 80.0584H72.8674C72.6246 80.0584 72.4275 80.2652 72.4267 80.5209L72.412 85.1626C72.412 87.1262 74.0101 88.7046 75.9672 88.7046C77.9048 88.7046 79.4904 87.1576 79.522 85.2214L79.5077 80.5208C79.5069 80.2652 79.3098 80.0584 79.067 80.0584ZM73.3065 80.9865H78.6277L78.641 85.1636C78.641 86.5999 77.4497 87.7766 75.9672 87.7766C74.5016 87.7766 73.3205 86.6265 73.2939 85.2115L73.3065 80.9865Z" fill="black"/>
<path fill-rule="evenodd" clip-rule="evenodd" d="M33.0361 76.8229C33.2648 76.7351 33.5177 76.8592 33.6011 77.1C33.6814 77.3322 33.5747 77.5881 33.3619 77.6848L33.3378 77.6948L24.7876 80.9739C24.5589 81.0616 24.306 80.9375 24.2227 80.6967C24.1423 80.4645 24.2491 80.2086 24.4619 80.112L24.4859 80.1019L33.0361 76.8229Z" fill="black"/>
<path fill-rule="evenodd" clip-rule="evenodd" d="M38.8686 76.8228C39.0974 76.7352 39.3503 76.8594 39.4335 77.1003C39.5137 77.3325 39.4068 77.5884 39.194 77.6849L39.1699 77.6949L30.605 80.974C30.3763 81.0616 30.1234 80.9373 30.0402 80.6965C29.96 80.4642 30.0669 80.2084 30.2797 80.1119L30.3038 80.1018L38.8686 76.8228Z" fill="black"/>
<path fill-rule="evenodd" clip-rule="evenodd" d="M45.0095 76.8228C45.2383 76.7352 45.4911 76.8594 45.5743 77.1003C45.6545 77.3325 45.5477 77.5884 45.3348 77.6849L45.3107 77.6949L36.7459 80.974C36.5171 81.0616 36.2643 80.9373 36.1811 80.6965C36.1009 80.4642 36.2077 80.2084 36.4206 80.1119L36.4447 80.1018L45.0095 76.8228Z" fill="black"/>
<path fill-rule="evenodd" clip-rule="evenodd" d="M51.0769 76.8228C51.3057 76.7352 51.5585 76.8594 51.6417 77.1003C51.7219 77.3325 51.6151 77.5884 51.4022 77.6849L51.3781 77.6949L42.8133 80.974C42.5845 81.0616 42.3316 80.9373 42.2485 80.6965C42.1682 80.4642 42.2751 80.2084 42.488 80.1119L42.512 80.1018L51.0769 76.8228Z" fill="black"/>
<path fill-rule="evenodd" clip-rule="evenodd" d="M57.144 76.8229C57.3727 76.7351 57.6257 76.8592 57.709 77.1C57.7893 77.3322 57.6826 77.5881 57.4698 77.6848L57.4457 77.6948L48.8955 80.9739C48.6668 81.0616 48.4139 80.9375 48.3306 80.6967C48.2502 80.4645 48.357 80.2086 48.5698 80.112L48.5938 80.1019L57.144 76.8229Z" fill="black"/>
<path fill-rule="evenodd" clip-rule="evenodd" d="M63.3436 76.8229C63.5723 76.7351 63.8252 76.8592 63.9086 77.1C63.9889 77.3322 63.8822 77.5881 63.6694 77.6848L63.6453 77.6948L55.0951 80.9739C54.8664 81.0616 54.6135 80.9375 54.5302 80.6967C54.4498 80.4645 54.5566 80.2086 54.7693 80.112L54.7934 80.1019L63.3436 76.8229Z" fill="black"/>
<path fill-rule="evenodd" clip-rule="evenodd" d="M69.2935 76.8229C69.5223 76.7351 69.7752 76.8592 69.8585 77.1C69.9388 77.3322 69.8321 77.5881 69.6193 77.6848L69.5952 77.6948L61.0451 80.9739C60.8164 81.0616 60.5634 80.9375 60.4801 80.6967C60.3998 80.4645 60.5065 80.2086 60.7193 80.112L60.7434 80.1019L69.2935 76.8229Z" fill="black"/>
<path fill-rule="evenodd" clip-rule="evenodd" d="M75.5226 76.8229C75.7513 76.7351 76.0042 76.8592 76.0875 77.1C76.1678 77.3322 76.0611 77.5881 75.8483 77.6848L75.8242 77.6948L67.2741 80.9739C67.0454 81.0616 66.7924 80.9375 66.7091 80.6967C66.6288 80.4645 66.7355 80.2086 66.9483 80.112L66.9724 80.1019L75.5226 76.8229Z" fill="black"/>
<path fill-rule="evenodd" clip-rule="evenodd" d="M81.1639 76.8229C81.3926 76.7351 81.6456 76.8592 81.7289 77.1C81.8092 77.3322 81.7025 77.5881 81.4897 77.6848L81.4656 77.6948L72.9154 80.9739C72.6867 81.0616 72.4338 80.9375 72.3505 80.6967C72.2701 80.4645 72.3769 80.2086 72.5897 80.112L72.6137 80.1019L81.1639 76.8229Z" fill="black"/>
<path fill-rule="evenodd" clip-rule="evenodd" d="M74.5275 116.577H13.736C13.354 116.577 13.0455 116.252 13.0455 115.85V114.365C13.0455 113.963 13.354 113.638 13.736 113.638H74.5275C74.9094 113.638 75.2179 113.963 75.2179 114.365V115.85C75.2179 116.252 74.9094 116.577 74.5275 116.577Z" fill="#FFC10E"/>
<path fill-rule="evenodd" clip-rule="evenodd" d="M18.966 113.684H60.4534C61.8785 113.684 63.0391 112.462 63.0391 110.962V96.8868C63.0391 95.3865 61.8785 94.1646 60.4534 94.1646H18.966C17.541 94.1646 16.3804 95.3865 16.3804 96.8868V110.962C16.3804 112.462 17.541 113.684 18.966 113.684Z" fill="#9FABB8"/>
<path fill-rule="evenodd" clip-rule="evenodd" d="M45.0132 94.1955V113.499H44.1317V94.1955H45.0132Z" fill="white"/>
<path fill-rule="evenodd" clip-rule="evenodd" d="M20.3029 109.554H29.2791C29.8226 109.554 30.2487 109.09 30.2487 108.534V105.131C30.2487 104.559 29.8079 104.11 29.2791 104.11H20.3029C19.7593 104.11 19.3333 104.574 19.3333 105.131V108.534C19.3333 109.09 19.7593 109.554 20.3029 109.554Z" fill="white"/>
<path fill-rule="evenodd" clip-rule="evenodd" d="M49.3176 143.737H0.91071C0.455288 143.737 0.0880127 143.35 0.0880127 142.871V141.231C0.0880127 140.752 0.455288 140.365 0.91071 140.365H49.3176C49.773 140.365 50.1403 140.752 50.1403 141.231V142.871C50.155 143.35 49.773 143.737 49.3176 143.737Z" fill="#FFC10E"/>
<path fill-rule="evenodd" clip-rule="evenodd" d="M99.8694 143.737H85.0609C84.6054 143.737 84.2382 143.35 84.2382 142.871V141.231C84.2382 140.752 84.6054 140.365 85.0609 140.365H99.8694C100.325 140.365 100.692 140.752 100.692 141.231V142.871C100.692 143.35 100.325 143.737 99.8694 143.737Z" fill="#FFC10E"/>
<path fill-rule="evenodd" clip-rule="evenodd" d="M79.4636 100.089L77.1571 94.1336C76.4519 92.8962 77.5097 91.8135 78.6703 92.7416C79.111 93.0973 79.6693 93.6077 80.1981 94.5358C81.726 97.1961 85.1049 102.764 84.914 102.548C84.723 102.331 79.4636 100.089 79.4636 100.089Z" fill="white"/>
<path fill-rule="evenodd" clip-rule="evenodd" d="M76.7509 94.3216L76.7609 94.3396L79.0554 100.264C79.0966 100.37 79.1735 100.456 79.271 100.506L79.3073 100.523L80.149 100.884L80.7859 101.159C81.1379 101.311 81.4856 101.463 81.8215 101.61L82.6776 101.988C83.1239 102.186 83.5098 102.36 83.8234 102.506L84.0422 102.608C84.2118 102.688 84.3509 102.756 84.4568 102.81L84.5364 102.851C84.5521 102.86 84.5665 102.867 84.5796 102.875L84.6328 102.905L84.6451 102.916L84.6673 102.934C84.6802 102.944 84.6939 102.951 84.7349 102.975L84.7714 102.992C84.8366 103.021 84.8661 103.017 85.0727 102.99L85.176 102.911C85.3185 102.8 85.324 102.775 85.3573 102.623L85.3611 102.544C85.3622 102.508 85.3602 102.497 85.3543 102.464L85.343 102.417C85.3377 102.396 85.3354 102.39 85.3285 102.372C85.3153 102.338 85.3002 102.307 85.276 102.262L85.2278 102.174C85.1989 102.122 85.1627 102.058 85.1189 101.982L84.8567 101.533L81.9038 96.5657C81.3812 95.6825 80.9668 94.9756 80.6395 94.4074L80.5752 94.2957C80.1139 93.4863 79.633 92.9446 79.0061 92.4285L78.9367 92.372C77.4207 91.1597 75.846 92.6488 76.7509 94.3216ZM78.4036 93.1111L78.402 93.1098C78.959 93.5594 79.3728 94.0104 79.7739 94.6945L80.1005 95.2597C80.4007 95.7767 80.7618 96.3912 81.1961 97.1247L83.783 101.473L83.4479 101.323C83.2696 101.243 83.0761 101.157 82.8664 101.064L82.3611 100.841C81.8962 100.637 81.4055 100.423 80.9092 100.209L79.8012 99.732L77.5651 93.9584C77.5566 93.9364 77.5465 93.9152 77.5349 93.8949C77.0658 93.0716 77.6504 92.5088 78.4036 93.1111Z" fill="black"/>
<path fill-rule="evenodd" clip-rule="evenodd" d="M97.3719 97.9695L85.1931 100.8L79.2285 97.5983L71.266 95.0462C70.2964 94.7523 69.5765 96.0361 70.3258 96.763C70.7224 97.1343 76.7164 99.2533 76.7164 99.2533L69.0917 98.3562C68.3131 98.2634 67.7989 99.2223 68.2984 99.872C68.7979 100.522 69.694 100.568 70.8987 100.862C71.6333 101.032 76.3491 101.62 76.3491 101.62L69.6206 102.115C67.9605 102.316 68.0046 104.821 71.1778 104.404C72.8232 104.187 74.8212 104.203 76.2169 103.801L71.6626 105.177C70.1642 106.136 71.7067 107.915 78.1267 105.873C82.0345 109.183 84.0766 109.802 87.6024 107.621C87.6171 107.606 99.3993 105.579 99.3993 105.579L97.3719 97.9695Z" fill="white"/>
<path fill-rule="evenodd" clip-rule="evenodd" d="M70.0329 97.1099L70.0436 97.1195C70.2676 97.3153 71.0987 97.6671 72.6005 98.238L72.8455 98.3308L69.1406 97.895C67.969 97.7554 67.2094 99.1931 67.9558 100.164C68.3409 100.665 68.8106 100.873 69.7721 101.087L70.3045 101.201C70.494 101.242 70.6472 101.277 70.7992 101.314L70.893 101.334C71.041 101.364 71.2636 101.401 71.5548 101.446L71.8304 101.487L69.5899 101.652L69.5702 101.654C68.5124 101.782 67.8598 102.714 68.1709 103.645C68.4833 104.581 69.5947 105.062 71.164 104.873L71.3288 104.852C70.3329 105.57 70.5167 106.699 71.8011 107.096L71.8474 107.11C73.0769 107.469 75.1685 107.264 77.9359 106.417L78.0315 106.387L78.0996 106.444C82.0906 109.769 84.2687 110.185 87.7185 108.087L87.7578 108.063L89.1402 107.82L94.4789 106.897L99.4703 106.037C99.7297 105.993 99.8946 105.72 99.8236 105.454L97.7963 97.8442L97.7886 97.8182C97.7162 97.5968 97.4967 97.4653 97.2769 97.5164L85.2523 100.311L79.4287 97.1849C79.4056 97.1725 79.3816 97.1623 79.3569 97.1544L71.3943 94.6023C69.9863 94.1755 68.9562 96.0078 69.995 97.0722L70.0329 97.1099ZM79.0626 98.03L84.9929 101.213L85.0237 101.228C85.107 101.265 85.1994 101.274 85.2881 101.253L97.06 98.517L98.8418 105.205L87.9891 107.08L87.5595 107.157L87.1563 107.233C87.0709 107.252 87.2912 107.221 87.303 107.266L87.3033 107.267L87.1872 107.338C84.0795 109.2 82.2574 108.777 78.4029 105.512C78.2896 105.416 78.1385 105.385 77.9992 105.429L77.7972 105.493C75.1215 106.323 73.1433 106.523 72.0885 106.217L72.0163 106.195L71.9527 106.174C71.474 106.01 71.4615 105.861 71.843 105.605L76.3385 104.247C76.8998 104.077 76.6638 103.191 76.1005 103.353L76.0255 103.374C75.3619 103.557 74.6492 103.643 73.1508 103.757L72.5651 103.802C71.9034 103.853 71.5404 103.889 71.1232 103.943C69.8841 104.106 69.1567 103.799 69.0025 103.337L68.9949 103.313C68.9055 102.993 69.1453 102.655 69.6329 102.581L69.6639 102.577L76.3798 102.083C76.9037 102.044 76.9313 101.255 76.4293 101.163L76.3388 101.151L75.5355 101.05L74.888 100.966C74.6732 100.939 74.46 100.911 74.2501 100.883L73.1655 100.738C72.0192 100.583 71.2377 100.465 70.9934 100.409L70.8147 100.366C70.7534 100.352 70.6898 100.338 70.6222 100.323L70.0172 100.193C69.2018 100.015 68.8648 99.8711 68.6409 99.58C68.3929 99.2574 68.6501 98.7705 69.0421 98.8172L76.6674 99.7144C77.1833 99.7751 77.3516 99.0173 76.8819 98.8231L76.8478 98.8103L75.9548 98.4912L75.3579 98.2756C74.8597 98.095 74.3664 97.9142 73.893 97.7383L73.169 97.467C71.7809 96.9417 70.7693 96.5237 70.6293 96.4247L70.6215 96.4187L70.6244 96.4218C70.2239 96.0332 70.6124 95.3309 71.144 95.4921L79.0626 98.03ZM87.9092 107.955C87.8489 108.032 88.1816 107.981 88.0736 108.003L87.7583 108.062L87.8256 108.021C87.8579 108.001 87.8876 107.977 87.914 107.949L87.9092 107.955Z" fill="black"/>
<path fill-rule="evenodd" clip-rule="evenodd" d="M105.731 72.3557L118.336 67.4372L124.771 99.4698C125.197 102.826 123.111 105.951 119.981 106.678L87.5143 111.503C86.5594 111.581 85.7073 110.9 85.5163 109.91L85.5016 99.4079C85.2812 98.2788 86.0452 97.1807 87.1323 97.0415L108.376 94.8296L105.731 72.3557Z" fill="#FFC10E"/>
<path fill-rule="evenodd" clip-rule="evenodd" d="M97.8888 95.6888C97.6491 95.7331 97.4206 95.5644 97.3785 95.312C97.338 95.0686 97.4855 94.8362 97.7111 94.7802L97.7364 94.7747L107.447 92.9805C107.463 92.9777 107.478 92.9757 107.494 92.9746L107.526 92.9735L107.576 92.9735L107.669 92.9752C107.704 92.9761 107.742 92.9774 107.783 92.9792C107.952 92.9865 108.135 93 108.33 93.0215C108.875 93.0814 109.418 93.1914 109.93 93.3655C111.374 93.8565 112.333 94.7695 112.486 96.2005C112.513 96.4552 112.34 96.6849 112.098 96.7137C111.856 96.7424 111.638 96.5593 111.61 96.3047C111.503 95.3009 110.808 94.6392 109.659 94.2486C109.212 94.0964 108.727 93.9981 108.239 93.9445C108.092 93.9284 107.953 93.9172 107.824 93.9102L107.747 93.9065C107.699 93.9044 107.657 93.9031 107.621 93.9023L107.562 93.9014L97.8888 95.6888Z" fill="black"/>
<path fill-rule="evenodd" clip-rule="evenodd" d="M105.213 75.9334C105.445 75.8982 105.661 76.0607 105.708 76.2998L105.712 76.3267L107.935 92.609L107.95 92.6003C108.005 92.5685 108.06 92.5371 108.118 92.5061L108.204 92.4601C109.385 91.8457 110.63 91.6705 111.812 92.2264C112.418 92.5113 112.974 92.9811 113.468 93.6468C113.618 93.8487 113.584 94.1403 113.392 94.2981C113.2 94.456 112.923 94.4202 112.774 94.2183C112.366 93.6689 111.924 93.2952 111.453 93.0738C110.55 92.6495 109.563 92.7884 108.595 93.2921C108.396 93.3958 108.214 93.5068 108.056 93.6173L107.993 93.6615C107.974 93.6757 107.955 93.6893 107.938 93.7024L107.89 93.7393L107.871 93.7544C107.612 93.9717 107.229 93.8201 107.165 93.4841L107.161 93.4572L104.84 76.4587C104.805 76.2051 104.972 75.9699 105.213 75.9334Z" fill="black"/>
<path fill-rule="evenodd" clip-rule="evenodd" d="M115.824 124.635C115.471 124.589 115.119 124.573 114.751 124.604C111.593 124.852 109.286 128.022 110.065 131.425C110.256 132.26 110.638 133.034 111.167 133.683C112.181 134.905 113.576 135.57 115.06 135.586V138.695C115.06 141.402 117.146 143.613 119.732 143.613H127.606C130.177 143.613 132.278 141.417 132.278 138.695V126.553C132.278 125.501 131.47 124.65 130.471 124.65H115.824V124.635ZM113.253 132.384C112.665 131.858 112.313 131.116 112.254 130.311C112.136 128.641 113.341 127.172 114.928 127.048C114.972 127.048 115.016 127.048 115.06 127.048V133.127C114.399 133.111 113.767 132.848 113.253 132.384Z" fill="#404A56"/>
<path fill-rule="evenodd" clip-rule="evenodd" d="M124.154 136.978V137.643C124.154 137.921 123.933 138.153 123.669 138.153C123.404 138.153 123.184 137.921 123.184 137.643V136.947C122.699 136.87 122.244 136.699 121.847 136.452C121.598 136.297 121.495 135.972 121.627 135.694V135.679C121.774 135.369 122.126 135.261 122.406 135.431C122.861 135.71 123.39 135.88 123.772 135.88C124.183 135.88 124.448 135.725 124.448 135.416C124.448 134.457 121.73 135.029 121.73 133.111C121.73 132.276 122.288 131.704 123.184 131.533V130.899C123.184 130.621 123.404 130.389 123.669 130.389C123.933 130.389 124.154 130.621 124.154 130.899V131.502C124.55 131.549 124.947 131.657 125.3 131.812C125.593 131.936 125.711 132.307 125.579 132.601L125.564 132.632C125.432 132.925 125.109 133.034 124.83 132.91C124.403 132.724 123.963 132.601 123.669 132.601C123.331 132.601 123.096 132.724 123.096 132.987C123.096 133.931 125.814 133.389 125.814 135.354C125.829 136.313 125.123 136.87 124.154 136.978Z" fill="white"/>
</svg>
